Coordinates
version=1
nRows=11
nColumns=36
inDegrees=yes

Units are S.I. units (second, meters, Newtons, ...)
If the header above contains a line with 'inDegrees', this indicates whether rotational values are in degrees (yes) or radians (no).

endheader
time	pelvis_tilt	pelvis_list	pelvis_rotation	pelvis_tx	pelvis_ty	pelvis_tz	hip_flexion_r	hip_adduction_r	hip_rotation_r	knee_angle_r	knee_angle_r_beta	ankle_angle_r	subtalar_angle_r	mtp_angle_r	hip_flexion_l	hip_adduction_l	hip_rotation_l	knee_angle_l	knee_angle_l_beta	ankle_angle_l	subtalar_angle_l	mtp_angle_l	lumbar_extension	lumbar_bending	lumbar_rotation	arm_flex_r	arm_add_r	arm_rot_r	elbow_flex_r	pro_sup_r	arm_flex_l	arm_add_l	arm_rot_l	elbow_flex_l	pro_sup_l
      0.71000000	     -2.17723268	      2.56370839	     -3.00549876	      0.79387073	      0.93560280	     -0.21079514	     -8.41303545	     -2.61922631	     -0.57922195	     36.72461478	      0.64096544	     -2.05146509	     -4.18232494	     -7.13514669	     23.55079554	      4.63005459	     -3.89674809	     17.83854295	      0.31134131	     -2.22800476	    -10.86415044	     -7.13514669	     -1.85143470	     -5.61820485	     11.14448919	      5.81210699	     -2.64322017	      0.41288725	     35.61155559	    105.44811292	    -14.57355468	     -2.35722065	    -23.59971115	     20.74882218	     98.87321369
      0.72000000	     -1.91638463	      3.01101405	     -2.98455333	      0.80559091	      0.93712392	     -0.21240332	     -6.76277101	     -3.56757436	     -0.97207372	     40.64344082	      0.70936186	     -3.95234097	     -4.41503371	     -7.13883522	     22.53461424	      5.24838588	     -4.17510874	     17.99203477	      0.31402025	     -1.36723196	    -10.81964263	     -7.13883522	     -2.22817491	     -6.20175569	     10.71802637	      5.66822468	     -2.60937910	      0.54141029	     35.40593463	    105.40792070	    -13.95234395	     -2.48299429	    -23.52961713	     21.13490567	     98.94353961
      0.73000000	     -1.98333276	      3.29610960	     -2.97445837	      0.81695181	      0.93809541	     -0.21381011	     -4.64713505	     -4.22247918	     -1.09083988	     44.57387011	      0.77796079	     -5.68749739	     -5.54593536	     -7.15008949	     21.90460970	      5.60148787	     -4.69668649	     18.15415005	      0.31684969	     -0.27976172	    -10.05304904	     -7.15008949	     -2.18289544	     -6.58275501	     10.27191136	      5.56164114	     -2.63001161	      0.92469872	     35.01974995	    105.30773458	    -13.45382494	     -2.56798986	    -23.50213362	     21.78950843	     99.08021975
      0.74000000	     -1.82872221	      3.69313817	     -2.95286818	      0.82815927	      0.93935141	     -0.21517493	     -2.76096436	     -5.03383140	     -1.28093066	     48.35470532	      0.84394882	     -6.57831649	     -6.21910417	     -7.15425294	     20.87152852	      6.16101156	     -4.95501081	     17.96461204	      0.31354163	      0.57806389	     -9.80561740	     -7.15425294	     -2.44902190	     -7.10897315	      9.80492329	      5.44956080	     -2.60358788	      1.06279561	     34.79911720	    105.27518159	    -12.73463660	     -2.72204312	    -23.41638462	     22.24939436	     99.14773151
      0.75000000	     -1.93589043	      3.95270264	     -2.97024166	      0.83897478	      0.94023102	     -0.21635707	     -0.49661419	     -5.57764193	     -1.23530416	     52.05525105	      0.90853552	     -6.98559095	     -7.51307355	     -7.16523225	     20.18650458	      6.49735394	     -5.38375348	     17.87591911	      0.31199365	      1.55261080	     -9.06013619	     -7.16523225	     -2.42164796	     -7.45926539	      9.34067226	      5.40678708	     -2.65635324	      1.38873266	     34.40764869	    105.23020276	    -12.11383244	     -2.87214732	    -23.28266511	     22.91861502	     99.24962263
      0.76000000	     -1.82584338	      4.22602684	     -2.98729096	      0.84967023	      0.94144366	     -0.21749041	      1.48316349	     -6.13636594	     -1.21015097	     55.44038016	      0.96761717	     -6.75758210	     -8.53523122	     -7.16918117	     19.15555311	      6.93265538	     -5.50809805	     17.54532093	      0.30622362	      2.28539030	     -8.80449336	     -7.16918117	     -2.66810674	     -7.84188801	      8.86133014	      5.35584466	     -2.65068921	      1.49850588	     34.17537083	    105.22002078	    -11.27317041	     -3.03569343	    -23.10538039	     23.37390172	     99.31092449
      0.77000000	     -1.82875994	      4.40979403	     -3.03875428	      0.86014241	      0.94258446	     -0.21849137	      3.61327533	     -6.50180626	     -1.06111021	     58.57759941	      1.02237198	     -6.14314869	     -9.70110715	     -7.17275167	     18.26160977	      7.25296156	     -5.58192174	     17.22049155	      0.30055428	      2.93138158	     -8.52772113	     -7.17275167	     -2.80834813	     -8.13338411	      8.39618392	      5.29986182	     -2.69526465	      1.60702106	     33.88094554	    105.21746348	    -10.44343781	     -3.20031308	    -22.81573683	     23.87073406	     99.38883567
      0.78000000	     -1.94498793	      4.47988760	     -3.06036824	      0.87058892	      0.94367223	     -0.21947333	      5.82180222	     -6.69783748	     -0.92574481	     61.37021762	      1.07111236	     -5.32486707	    -10.87535324	     -7.17777352	     17.47974981	      7.44032861	     -5.69558547	     16.88472041	      0.29469396	      3.57552111	     -8.18237845	     -7.17777352	     -2.72509816	     -8.23108180	      7.96436803	      5.22011568	     -2.73795938	      1.79228909	     33.49133275	    105.22593272	     -9.61438716	     -3.38727508	    -22.29490347	     24.38744065	     99.51053756
      0.79000000	     -2.02693550	      4.47043572	     -3.08447337	      0.88084370	      0.94490415	     -0.22035162	      7.95617366	     -6.72776539	     -0.73873487	     63.79543910	      1.11344046	     -4.51604231	    -11.89153631	     -7.18317308	     16.66966388	      7.54211386	     -5.74845452	     16.55556301	      0.28894908	      4.19945576	     -7.82303651	     -7.18317308	     -2.73463454	     -8.25800107	      7.47301366	      5.17138951	     -2.81865366	      1.98964634	     33.10200598	    105.23536933	     -8.72249918	     -3.59649134	    -21.58328739	     24.81220041	     99.67677862
      0.80000000	     -2.02907041	      4.36217801	     -3.08772339	      0.89102206	      0.94639257	     -0.22117611	      9.91619082	     -6.58887540	     -0.53999503	     65.78281524	      1.14812672	     -3.84333500	    -12.68832924	     -7.18633224	     15.74848102	      7.55281693	     -5.70350874	     16.19150201	      0.28259502	      4.71148350	     -7.54774429	     -7.18633224	     -2.86695695	     -8.17086007	      6.92393958	      5.12549077	     -2.87705890	      2.10521948	     32.78366449	    105.23163395	     -7.74930651	     -3.74631340	    -20.98837802	     25.21445905	     99.83359022
      0.81000000	     -2.10384635	      4.17309557	     -3.03282364	      0.90118308	      0.94787660	     -0.22205701	     11.86744229	     -6.32782947	     -0.41295022	     67.37679784	      1.17594696	     -3.25388501	    -13.30885326	     -7.18951671	     14.88271820	      7.48623773	     -5.61080264	     15.77572803	      0.27533840	      5.22997170	     -7.21564294	     -7.18951671	     -2.87935247	     -7.96414624	      6.34541724	      5.05968507	     -2.98130949	      2.22199452	     32.41143634	    105.21926293	     -6.78803786	     -3.91155234	    -20.23937727	     25.61707397	    100.03902301
